HIERARCHY
ROOT Hips
{
 OFFSET 0.000000 0.000000 0.000000
 CHANNELS 6 Xposition Yposition Zposition Yrotation Xrotation Zrotation
 JOINT Chest
 {
  OFFSET 0.000000 9.585900 0.002600
  CHANNELS 3 Yrotation Xrotation Zrotation
  JOINT Chest2
  {
   OFFSET 0.000000 9.601200 -0.005300
   CHANNELS 3 Yrotation Xrotation Zrotation
   JOINT Chest3
   {
    OFFSET 0.000000 9.561800 0.000000
    CHANNELS 3 Yrotation Xrotation Zrotation
    JOINT Chest4
    {
     OFFSET 0.000000 9.552100 0.000000
     CHANNELS 3 Yrotation Xrotation Zrotation
     JOINT Neck
     {
      OFFSET 0.000000 14.453000 0.000000
      CHANNELS 3 Yrotation Xrotation Zrotation
      JOINT Head
      {
       OFFSET 0.000000 8.936500 -0.011300
       CHANNELS 3 Yrotation Xrotation Zrotation
       End Site
       {
        OFFSET 0.000000 17.073600 -0.006000
       }
      }
     }
     JOINT RightCollar
     {
      OFFSET -2.921100 9.558500 0.000000
      CHANNELS 3 Yrotation Xrotation Zrotation
      JOINT RightShoulder
      {
       OFFSET -13.519700 0.000000 0.000000
       CHANNELS 3 Yrotation Xrotation Zrotation
       JOINT RightElbow
       {
        OFFSET 0.000000 -29.696600 0.000000
        CHANNELS 3 Yrotation Xrotation Zrotation
        JOINT RightWrist
        {
         OFFSET 0.000000 -24.004700 0.000000
         CHANNELS 3 Yrotation Xrotation Zrotation
         End Site
         {
          OFFSET 0.000000 -17.728500 0.000000
         }
        }
       }
      }
     }
     JOINT LeftCollar
     {
      OFFSET 2.921100 9.558500 0.000000
      CHANNELS 3 Yrotation Xrotation Zrotation
      JOINT LeftShoulder
      {
       OFFSET 13.519700 0.000000 0.000000
       CHANNELS 3 Yrotation Xrotation Zrotation
       JOINT LeftElbow
       {
        OFFSET 0.000000 -29.696600 0.000000
        CHANNELS 3 Yrotation Xrotation Zrotation
        JOINT LeftWrist
        {
         OFFSET 0.000000 -24.004700 0.000000
         CHANNELS 3 Yrotation Xrotation Zrotation
         End Site
         {
          OFFSET 0.000000 -17.728500 0.000000
         }
        }
       }
      }
     }
    }
   }
  }
 }
 JOINT RightHip
 {
  OFFSET -7.771700 -0.012900 -0.001300
  CHANNELS 3 Yrotation Xrotation Zrotation
  JOINT RightKnee
  {
   OFFSET 0.000000 -40.869800 0.001200
   CHANNELS 3 Yrotation Xrotation Zrotation
   JOINT RightAnkle
   {
    OFFSET 0.000000 -39.717900 0.002100
    CHANNELS 3 Yrotation Xrotation Zrotation
    JOINT RightToe
    {
     OFFSET 0.000000 -4.965400 11.033500
     CHANNELS 3 Yrotation Xrotation Zrotation
     End Site
     {
      OFFSET 0.000000 -1.423100 5.872300
     }
    }
   }
  }
 }
 JOINT LeftHip
 {
  OFFSET 7.771700 -0.012900 -0.001300
  CHANNELS 3 Yrotation Xrotation Zrotation
  JOINT LeftKnee
  {
   OFFSET 0.000000 -40.869800 0.001200
   CHANNELS 3 Yrotation Xrotation Zrotation
   JOINT LeftAnkle
   {
    OFFSET 0.000000 -39.717900 0.002100
    CHANNELS 3 Yrotation Xrotation Zrotation
    JOINT LeftToe
    {
     OFFSET 0.000000 -4.965400 11.033500
     CHANNELS 3 Yrotation Xrotation Zrotation
     End Site
     {
      OFFSET 0.000000 -1.423100 5.872300
     }
    }
   }
  }
 }
}
MOTION
Frames: 12
Frame Time: 0.008333
-68.940400 55.603294 -34.294737 -175.954387 -16.075491 -0.798356 -0.502774 15.499353 0.563112 -0.034955 1.493867 0.079239 -0.059007 2.505966 0.132469 -0.263134 13.906284 0.711846 0.218352 13.636723 -4.578734 1.289032 -11.297548 -4.913274 0.917582 1.596166 0.447679 0.167836 -10.099571 -6.224520 -73.077891 -50.693325 105.254647 -15.025434 5.659500 -0.451555 -5.333211 -1.041468 1.631988 2.786690 -12.743971 5.109344 57.859110 -42.932569 -100.134663 12.128559 -2.109961 6.048455 -4.545670 -59.247460 11.244818 -25.161508 85.928604 -28.977125 -10.742076 -19.159496 11.378303 0.026071 -0.058240 -0.114035 10.642091 -56.203164 -11.061528 90.935118 69.902872 93.250879 2.381374 -19.177143 -4.098055 -0.085307 0.152585 -0.038075
-68.937527 55.604342 -34.299233 -175.984091 -16.125727 -0.827258 -0.466728 15.533959 0.597517 -0.037665 1.482013 0.076996 -0.058748 2.503772 0.131722 -0.265392 13.879235 0.702552 0.222747 13.597590 -4.580655 1.290825 -11.368761 -4.922944 0.922655 1.618738 0.453160 0.160587 -10.076861 -6.218889 -73.202260 -50.814449 105.304369 -14.992602 5.695567 -0.411562 -5.320106 -1.013966 1.643275 2.790777 -12.690862 5.084361 57.838506 -42.952998 -100.094088 12.131949 -2.114348 6.053814 -4.577425 -59.189256 11.314242 -25.622201 85.915318 -29.421689 -10.696665 -19.152041 11.368086 0.052090 -0.060567 -0.086636 10.611425 -56.163989 -10.995077 90.938189 69.894663 93.261281 2.374255 -19.146652 -4.094505 -0.081075 0.122467 -0.040756
-68.939778 55.604374 -34.299367 -175.992247 -16.150254 -0.828560 -0.458520 15.553096 0.599780 -0.040329 1.470413 0.074795 -0.060551 2.491020 0.129385 -0.261564 13.895586 0.703856 0.222925 13.563598 -4.584731 1.289553 -11.483757 -4.941542 0.916102 1.601120 0.457051 0.144266 -10.070688 -6.222045 -73.307114 -50.933280 105.342150 -14.953780 5.735496 -0.369535 -5.310824 -1.031763 1.643948 2.799137 -12.615125 5.052485 57.820541 -43.000841 -100.066764 12.119596 -2.108874 6.047568 -4.579561 -59.161731 11.317496 -25.634260 85.909541 -29.430711 -10.691771 -19.137496 11.375166 0.047867 -0.063734 -0.081539 10.608608 -56.142423 -10.994160 90.948880 69.886069 93.279548 2.376606 -19.148238 -4.099051 -0.078383 0.121816 -0.041975
-68.941057 55.604637 -34.299688 -176.007917 -16.175341 -0.831812 -0.446873 15.555978 0.602031 -0.036156 1.486841 0.077618 -0.063805 2.473782 0.127616 -0.257950 13.905017 0.703113 0.220861 13.463901 -4.598917 1.294558 -11.527094 -4.950651 0.905656 1.557991 0.448808 0.124204 -10.043395 -6.212953 -73.410811 -51.051301 105.377932 -14.908312 5.782479 -0.326395 -5.306287 -1.044171 1.648011 2.792789 -12.567014 5.040425 57.824915 -43.021471 -100.058595 12.086571 -2.046067 6.103852 -4.595011 -59.131785 11.335951 -25.496869 85.908164 -29.296592 -10.688170 -19.125504 11.383299 0.042608 -0.062820 -0.076277 10.605939 -56.121260 -10.987641 90.957285 69.874321 93.304398 2.374457 -19.144719 -4.114456 -0.070673 0.117444 -0.038750
-68.941914 55.604840 -34.299486 -176.019225 -16.196848 -0.836233 -0.446122 15.537426 0.603624 -0.028430 1.504295 0.077557 -0.066006 2.475433 0.130027 -0.253482 13.898462 0.701054 0.219323 13.383575 -4.612774 1.301003 -11.567995 -4.962392 0.901261 1.569897 0.446604 0.105224 -10.058959 -6.212977 -73.520115 -51.166524 105.413516 -14.862405 5.831295 -0.285387 -5.304792 -1.045227 1.655271 2.790685 -12.527056 5.028896 57.823328 -43.031927 -100.043261 12.070423 -2.004036 6.118064 -4.598127 -59.106114 11.347571 -25.415367 85.904160 -29.216311 -10.691345 -19.116498 11.389656 0.036859 -0.055850 -0.057821 10.599435 -56.101970 -10.969333 90.960373 69.872855 93.310903 2.366160 -19.146137 -4.113028 -0.064631 0.117960 -0.038516
-68.943291 55.605265 -34.299744 -176.037882 -16.221615 -0.832994 -0.431541 15.552824 0.605064 -0.035616 1.485070 0.077531 -0.060903 2.488646 0.130762 -0.252804 13.891792 0.697425 0.222157 13.325331 -4.622201 1.307661 -11.628108 -4.980283 0.903340 1.587420 0.446514 0.079307 -10.084208 -6.211306 -73.626693 -51.281492 105.448988 -14.818401 5.881420 -0.245385 -5.300747 -1.040595 1.659652 2.788385 -12.498288 5.019222 57.810731 -43.047508 -100.008194 12.061034 -1.963223 6.114044 -4.585184 -59.078096 11.350239 -25.386070 85.897660 -29.189714 -10.702811 -19.106920 11.399759 0.043172 -0.052547 -0.049409 10.601125 -56.080597 -10.957586 90.970707 69.866565 93.318785 2.364404 -19.140930 -4.109076 -0.065263 0.112734 -0.040939
-68.943071 55.604835 -34.297071 -176.044242 -16.227546 -0.838631 -0.427998 15.549552 0.613396 -0.035652 1.484670 0.077516 -0.058749 2.493144 0.129730 -0.260944 13.854259 0.706339 0.228733 13.293308 -4.644645 1.313990 -11.684713 -4.998724 0.906924 1.610482 0.434983 0.046886 -10.088936 -6.203085 -73.725743 -51.393992 105.488225 -14.775987 5.932969 -0.208643 -5.288668 -1.019282 1.662598 2.794073 -12.432586 4.991655 57.803688 -43.087547 -100.012622 12.057131 -1.937086 6.118845 -4.601226 -59.069223 11.368637 -25.333284 85.890573 -29.140606 -10.720016 -19.086446 11.438755 0.066945 -0.060254 -0.079042 10.585413 -56.088443 -10.938922 91.007426 69.861551 93.350005 2.362494 -19.127313 -4.103810 -0.065551 0.100783 -0.042481
-68.942761 55.605041 -34.296713 -176.053946 -16.248070 -0.841995 -0.421708 15.552634 0.621007 -0.035591 1.484318 0.077787 -0.058610 2.492780 0.130189 -0.258781 13.858374 0.704743 0.229464 13.271414 -4.652739 1.318430 -11.769762 -5.024580 0.895965 1.595360 0.434231 0.028944 -10.083774 -6.194254 -73.824667 -51.498037 105.523036 -14.738341 5.980926 -0.174815 -5.284131 -1.012439 1.666587 2.795207 -12.404462 4.983697 57.731202 -43.102673 -99.944047 12.048799 -1.943441 6.098017 -4.624756 -59.044375 11.396585 -25.389192 85.880378 -29.200755 -10.748290 -19.068455 11.449567 0.045829 -0.056668 -0.058752 10.572702 -56.075528 -10.920316 91.025033 69.855784 93.371623 2.354770 -19.117923 -4.106081 -0.058078 0.095103 -0.039218
-68.941877 55.605149 -34.296181 -176.061426 -16.267356 -0.846807 -0.416506 15.553561 0.627052 -0.035787 1.463920 0.077547 -0.058409 2.492584 0.130568 -0.255486 13.892687 0.704371 0.230170 13.241238 -4.659676 1.321793 -11.844809 -5.051908 0.888037 1.588499 0.437559 0.003750 -10.091821 -6.184829 -73.918979 -51.593012 105.558035 -14.772941 6.042343 -0.138052 -5.282625 -1.012544 1.671514 2.797038 -12.379869 4.980474 57.724608 -43.107532 -99.945777 12.049642 -1.905954 6.110280 -4.641376 -59.021070 11.420793 -25.443229 85.870885 -29.258042 -10.769893 -19.053285 11.454326 0.008466 -0.059053 -0.048747 10.560587 -56.060861 -10.901681 91.023368 69.853873 93.378479 2.347195 -19.111282 -4.114481 -0.046913 0.093827 -0.034181
-68.941356 55.605323 -34.296058 -176.064231 -16.289200 -0.848955 -0.413665 15.555224 0.629323 -0.034997 1.464106 0.078039 -0.058588 2.492543 0.130699 -0.256038 13.891664 0.706721 0.230162 13.198107 -4.676349 1.325750 -11.880536 -5.073846 0.880680 1.600007 0.441415 -0.022691 -10.097559 -6.174846 -74.009537 -51.681584 105.590878 -14.709310 6.071899 -0.092886 -5.283776 -0.994595 1.670040 2.799283 -12.371800 4.978503 57.704389 -43.103003 -99.927028 12.055706 -1.866934 6.117995 -4.651897 -58.995518 11.437817 -25.563390 85.859783 -29.378758 -10.805049 -19.038371 11.459699 0.053230 -0.052098 -0.034693 10.547651 -56.043065 -10.887051 91.029216 69.850823 93.386047 2.342152 -19.108681 -4.116624 -0.042017 0.093795 -0.031847
-68.939718 55.606053 -34.297825 -176.062240 -16.322012 -0.858692 -0.412125 15.567419 0.637448 -0.035521 1.470682 0.080627 -0.058714 2.497032 0.129873 -0.257799 13.867407 0.707224 0.229401 13.171617 -4.694564 1.329659 -11.868282 -5.075094 0.878379 1.629213 0.444321 -0.097511 -10.122762 -6.132845 -74.027585 -51.779687 105.595370 -14.650126 6.095608 -0.047962 -5.286586 -0.963628 1.671180 2.803687 -12.347233 4.981362 57.670302 -43.097330 -99.906910 12.061774 -1.850597 6.112790 -4.668894 -58.962653 11.451656 -25.683051 85.855555 -29.506096 -10.749188 -19.004143 11.448712 0.031184 -0.076955 -0.020539 10.511539 -56.017030 -10.850056 91.035388 69.846960 93.391623 2.333452 -19.101721 -4.120458 -0.036059 0.090808 -0.028764
-68.939670 55.606074 -34.296926 -176.070738 -16.338605 -0.854517 -0.404493 15.565782 0.638782 -0.035579 1.484310 0.078058 -0.058670 2.492736 0.130640 -0.258141 13.872009 0.706119 0.229200 13.122854 -4.712504 1.333498 -11.920728 -5.104067 0.877208 1.628209 0.447238 -0.136171 -10.126211 -6.110818 -74.102996 -51.861983 105.629881 -14.623471 6.124900 -0.009836 -5.290871 -0.964195 1.678473 2.806514 -12.322918 4.983419 57.633372 -43.086161 -99.881593 12.068713 -1.836980 6.103207 -4.664474 -58.945980 11.454401 -25.915857 85.841078 -29.741103 -10.734974 -18.984618 11.443852 0.031868 -0.077254 -0.012039 10.511408 -56.000768 -10.839931 91.031430 69.847677 93.382399 2.329058 -19.101854 -4.117335 -0.033641 0.093494 -0.026354
